<mxfile host="app.diagrams.net" modified="2025-10-06T00:00:00.000Z" agent="ChatGPT" version="24.4.13" type="device">
  <diagram id="mock" name="Mock UI">
    <mxGraphModel dx="842" dy="595" grid="1" gridSize="10" guides="1" tooltips="1" connect="1" arrows="1" fold="1" page="1" pageScale="1" pageWidth="827" pageHeight="1169">
      <root>
        <mxCell id="0"/>
        <mxCell id="1" parent="0"/>
        <mxCell id="2" value="Ahorcado UI&#10;[ASCII] [Palabra enmascarada] [Input letra] [Botoin]" style="rounded=1;whiteSpace=wrap;html=1;" vertex="1" parent="1">
          <mxGeometry x="200" y="120" width="420" height="220" as="geometry"/>
        </mxCell>
      </root>
    </mxGraphModel>
  </diagram>
</mxfile>
